<svg xmlns="http://www.w3.org/2000/svg" height="800" width="1200" viewBox="-12.90591 -21.521775 111.85122 129.13065"><path d="M38.7297 85.9103c-6.628-.635-13.338-3.015-19.102-6.776-4.83-3.15-5.92-4.447-5.92-7.032 0-5.193 5.71-14.29 15.48-24.658 5.547-5.89 13.275-12.79 14.11-12.604 1.626.363 14.616 13.034 19.48 19 7.69 9.43 11.224 17.154 9.428 20.597-1.365 2.617-9.837 7.733-16.06 9.698-5.13 1.62-11.867 2.306-17.416 1.775zm-31.546-19.207c-4.014-6.158-6.042-12.22-7.02-20.988-.324-2.895-.21-4.55.733-10.494 1.173-7.4 5.39-15.97 10.46-21.24 2.158-2.24 2.35-2.3 4.982-1.41 3.19 1.08 6.6 3.436 11.89 8.22l3.09 2.794-1.69 2.07c-7.828 9.61-16.09 23.24-19.2 31.67-1.69 4.58-2.37 9.18-1.64 11.095.49 1.294.04.812-1.61-1.714zm70.453 1.047c.397-1.936-.105-5.49-1.28-9.076-2.545-7.765-11.054-22.21-18.867-32.032l-2.46-3.092 2.662-2.443c3.474-3.19 5.886-5.1 8.49-6.723 2.053-1.28 4.988-2.413 6.25-2.413.777 0 3.516 2.85 5.726 5.95 3.424 4.8 5.942 10.63 7.218 16.69.825 3.92.894 12.3.133 16.21-.63 3.208-1.95 7.366-3.23 10.187-.97 2.113-3.36 6.218-4.41 7.554-.54.687-.54.686-.24-.796zm-38.197-57.245c-3.606-1.83-9.168-3.795-12.24-4.325-1.076-.185-2.913-.29-4.08-.23-2.536.128-2.423-.004 1.643-1.925 3.38-1.597 6.2-2.536 10.03-3.34 4.305-.905 12.4-.915 16.637-.022 4.575.965 9.964 2.97 13 4.84l.904.554-2.07-.104c-4.116-.208-10.114 1.455-16.554 4.587-1.942.946-3.63 1.7-3.754 1.68-.123-.024-1.706-.795-3.52-1.715z" fill="#107c10"/></svg>